PathFileType	3	(X/Y/Z)	D:\minhoCalibration\240510\subject5_KPNP\preferred\preferred01.trc
DataRate	CameraRate	NumFrames	NumMarkers	Units	OrigDataRate	OrigDataStartFrame	OrigNumFrames
200.0	200.0	21	10	mm	200.0	170	121	
Frame#	Time	Left_Ankle_Outer1			Left_Ankle_Inner1			Left_Knee_Outer1			Left_Knee_Inner1			Left_Wrist1			Right_Wrist1			Right_Knee_Inner1			Right_Knee_Outer1			Right_Ankle_Inner1			Right_Ankle_Outer1			
		X1	Y1	Z1	X2	Y2	Z2	X3	Y3	Z3	X4	Y4	Z4	X5	Y5	Z5	X6	Y6	Z6	X7	Y7	Z7	X8	Y8	Z8	X9	Y9	Z9	X10	Y10	Z10	
170	0.84	-598.84009	82.670776	-656.55157	-620.90515	98.397987	-609.43591	-398.39072	519.97076	-666.18408	-425.31122	511.53452	-575.85059	-545.41266	962.47955	-836.10913	-537.75708	1177.4916	-577.68823	-329.6221	986.76685	-165.7114	-333.57944	1070.9563	-194.35449	-595.98785	983.9162	218.08647	-617.52753	1071.719	182.79495
171	0.845	-599.93542	81.724915	-655.83734	-621.85199	97.29377	-608.17059	-400.44357	519.15924	-665.9187	-427.57687	511.13474	-574.95563	-545.9787	962.53082	-836.03595	-537.17334	1177.4678	-577.10718	-335.36136	991.10608	-166.40631	-338.58096	1074.1573	-194.6102	-552.27924	993.7157	248.61441	-578.69373	1081.9529	214.07597
172	0.85	-600.79938	80.829185	-655.13483	-622.89136	96.238182	-607.45697	-402.52469	518.38885	-665.72968	-429.77261	510.46436	-574.80267	-546.95197	962.35229	-835.28827	-537.00415	1177.1969	-575.97443	-342.7973	995.18909	-165.83572	-345.92993	1077.4135	-193.52028	-506.46872	1003.4291	273.40714	-536.99316	1090.1069	241.11424
173	0.855	-601.45929	79.183929	-653.43799	-623.61438	94.964996	-606.54828	-404.46371	517.74225	-665.60669	-431.88037	509.98718	-574.57623	-546.82056	962.96539	-835.00598	-536.67706	1176.9961	-575.17926	-350.1022	998.92828	-163.6212	-355.36743	1081.1282	-191.22995	-464.67606	1009.8976	289.69495	-494.40967	1097.6597	261.46045
174	0.86	-602.32056	78.943001	-653.45941	-624.55963	93.624001	-606.19208	-406.27713	517.17883	-665.58197	-433.56815	509.51987	-574.54089	-548.04242	963.11731	-832.73425	-536.42145	1176.6914	-573.3811	-356.44531	1002.4346	-160.11624	-366.18021	1086.0946	-187.47316	-442.51215	1011.3466	290.75574	-467.93851	1102.0879	265.50247
175	0.865	-603.13635	78.168343	-652.90973	-624.85114	93.01297	-605.27478	-408.17773	516.63715	-665.41925	-435.16547	508.89175	-574.57056	-548.11316	963.59412	-830.60608	-535.97528	1176.6267	-571.09961	-359.7179	1004.7064	-156.49905	-373.89273	1091.0183	-181.63194	-433.4429	1011.152	293.4032	-460.70212	1103.142	268.84247
176	0.87	-603.68085	77.813507	-652.54584	-625.30048	92.418129	-605.0271	-409.90878	516.2746	-664.84412	-436.2276	508.82614	-573.31482	-547.76923	964.30353	-827.63013	-535.83118	1176.917	-568.81299	-356.59756	1008.287	-154.02007	-372.09909	1094.646	-178.18465	-430.33627	1008.2793	293.60083	-461.49582	1100.2719	270.46329
177	0.875	-603.89282	77.552254	-652.41553	-625.81458	92.130157	-604.57373	-410.8735	516.32037	-664.29901	-437.28955	508.68732	-571.89441	-547.14673	964.22064	-824.77869	-536.26697	1177.2631	-566.33405	-353.59589	1010.6877	-151.64709	-369.6059	1097.0641	-175.22368	-431.92401	1004.4404	297.14154	-468.06525	1095.2328	270.87085
178	0.88	-603.81628	77.628281	-652.25787	-625.97443	91.96608	-604.34808	-412.15421	516.33643	-662.14093	-437.97977	508.42834	-570.76831	-546.63049	964.67468	-821.32654	-537.24341	1177.2379	-563.55835	-352.72626	1011.457	-149.89223	-367.77579	1097.8724	-172.20427	-433.54959	999.84912	296.60931	-474.93008	1089.5989	271.79446
179	0.885	-603.64661	78.040588	-652.17725	-626.02118	92.155617	-604.39349	-412.38342	516.7301	-659.87952	-438.42496	509.01468	-568.17902	-544.70483	965.74115	-819.81531	-538.55176	1176.7562	-560.86597	-354.12375	1011.186	-148.13959	-367.08368	1096.9702	-169.83817	-437.37662	997.82764	301.64902	-478.65875	1084.3994	273.26541
180	0.89	-603.32275	78.385162	-651.8324	-625.95105	92.467896	-603.98981	-412.23367	517.35236	-657.22296	-438.86301	509.4949	-565.81799	-543.20984	966.28314	-818.87854	-540.01428	1175.6833	-558.29657	-358.4874	1010.6064	-146.02203	-368.73001	1095.2848	-167.72906	-439.59189	991.99677	297.06409	-481.91238	1079.8473	275.98523
181	0.895	-603.03979	78.918968	-651.60699	-625.4845	92.75354	-604.03601	-411.9967	518.24792	-654.35681	-439.29617	509.80484	-564.00952	-541.52631	967.44672	-818.09314	-542.09082	1175.2941	-556.12561	-365.9866	1009.3353	-143.59656	-373.14819	1093.8105	-166.60695	-442.36887	986.38037	298.75644	-482.35638	1075.0535	279.99551
182	0.9	-602.59161	79.569267	-651.3941	-625.49255	93.233437	-603.73206	-411.79611	519.28473	-651.27686	-439.77362	510.61612	-560.76666	-539.38892	968.30829	-817.74725	-544.43005	1175.0756	-554.5708	-375.35416	1007.6158	-141.52296	-379.2272	1092.7925	-165.58238	-442.07355	980.487	301.58377	-482.10614	1069.9753	284.7691
183	0.905	-602.29041	80.231133	-651.25458	-625.29944	93.651581	-603.37903	-411.66699	520.35504	-648.12878	-440.58438	511.0246	-558.66785	-538.35303	969.25024	-815.96179	-546.84424	1175.4193	-553.70123	-385.14471	1006.0226	-139.57153	-386.44183	1091.8997	-164.20438	-440.54987	974.53448	304.42221	-482.34341	1063.7712	289.12015
184	0.91	-601.95551	80.866524	-651.14502	-625.16357	93.992851	-603.30145	-411.66327	521.3006	-644.91443	-441.68237	511.81863	-555.50446	-535.7453	969.70154	-816.03412	-549.34259	1176.2909	-553.42938	-394.35416	1004.6398	-137.83496	-394.64679	1091.0603	-161.88606	-437.60818	968.44916	307.09045	-482.54007	1056.9343	293.89636
185	0.915	-601.52588	81.297371	-651.05603	-625.14941	94.32962	-603.2384	-411.85406	522.20099	-641.67377	-443.23285	512.36542	-552.99146	-533.4184	970.05994	-815.15985	-551.80511	1177.4918	-553.552	-402.86142	1003.3093	-136.14383	-404.05371	1090.303	-158.63527	-432.1326	962.23914	313.52856	-483.22983	1048.1262	298.87769
186	0.92	-601.0517	81.662735	-651.05524	-625.07019	94.410416	-603.62622	-412.25479	522.95294	-638.60291	-445.21957	512.69257	-550.98462	-530.9574	970.14349	-813.88635	-554.13269	1179.1526	-553.89526	-410.22394	1002.0681	-134.50868	-414.51733	1089.4683	-155.22479	-426.55835	954.69873	313.4035	-484.22678	1037.5442	303.01477
187	0.925	-600.64893	81.882896	-651.04504	-624.6792	94.600868	-603.77722	-412.7587	523.74518	-635.74585	-447.39655	513.29358	-548.98254	-527.79181	970.3573	-812.79865	-556.37958	1180.9591	-554.24945	-416.50562	1000.8907	-132.95197	-425.70868	1088.3745	-151.94695	-420.09033	951.01044	319.67172	-486.00018	1025.7617	305.86084
188	0.93	-600.27698	81.892006	-651.13202	-624.76373	94.640556	-603.8089	-413.59503	524.2099	-633.12476	-449.85397	513.8739	-547.29608	-524.81488	970.40625	-810.92273	-558.55029	1182.7693	-554.5921	-421.91281	1000.0125	-131.42387	-437.07465	1087.019	-149.02443	-415.80737	944.0014	313.75082	-488.14896	1014.3751	307.7478
189	0.935	-600.02289	81.725029	-651.00354	-625.02118	94.209198	-604.17505	-414.45605	524.82355	-630.88721	-452.3306	514.40405	-546.04382	-522.02863	970.66034	-808.3833	-560.8634	1184.2177	-554.78699	-426.3913	999.46674	-129.85155	-448.31622	1085.2208	-146.31348	-413.11469	938.8114	315.45898	-490.09949	1003.4288	309.19476
190	0.94	-599.8114	81.451042	-651.14697	-625.07642	93.67524	-604.37183	-415.51779	525.20618	-629.13989	-455.20163	514.84296	-544.94702	-519.04675	970.68616	-806.12128	-563.14972	1185.2006	-554.90076	-430.44724	999.36572	-128.2653	-459.06567	1083.0306	-143.92226	-411.36118	933.17914	315.93924	-492.01398	992.29065	310.19754
